<?xml version="1.0" encoding="UTF-8" standalone="no"?>
<!-- Created with Inkscape (http://www.inkscape.org/) -->

<svg
   xmlns:dc="http://purl.org/dc/elements/1.1/"
   xmlns:cc="http://creativecommons.org/ns#"
   xmlns:rdf="http://www.w3.org/1999/02/22-rdf-syntax-ns#"
   xmlns:svg="http://www.w3.org/2000/svg"
   xmlns="http://www.w3.org/2000/svg"
   xmlns:sodipodi="http://sodipodi.sourceforge.net/DTD/sodipodi-0.dtd"
   xmlns:inkscape="http://www.inkscape.org/namespaces/inkscape"
   id="svg3586"
   version="1.1"
   inkscape:version="0.91 r13725"
   width="573.75"
   height="573.75"
   viewBox="0 0 573.75 573.75"
   sodipodi:docname="initial_filled.svg">
  <metadata
     id="metadata3592">
    <rdf:RDF>
      <cc:Work
         rdf:about="">
        <dc:format>image/svg+xml</dc:format>
        <dc:type
           rdf:resource="http://purl.org/dc/dcmitype/StillImage" />
        <dc:title></dc:title>
      </cc:Work>
    </rdf:RDF>
  </metadata>
  <defs
     id="defs3590" />
  <sodipodi:namedview
     pagecolor="#ffffff"
     bordercolor="#666666"
     borderopacity="1"
     objecttolerance="10"
     gridtolerance="10"
     guidetolerance="10"
     inkscape:pageopacity="0"
     inkscape:pageshadow="2"
     inkscape:window-width="1920"
     inkscape:window-height="1020"
     id="namedview3588"
     showgrid="false"
     inkscape:zoom="1.163414"
     inkscape:cx="282.29029"
     inkscape:cy="342.50865"
     inkscape:window-x="0"
     inkscape:window-y="36"
     inkscape:window-maximized="1"
     inkscape:current-layer="svg3586" />
  <path
     style="fill:#000000"
     d="M 83.15546,560.04929 C 82.744804,559.38482 82.376789,492.30504 82.337649,410.98309 82.298509,329.66114 81.877539,209.96875 81.40216,145 80.926783,80.03125 80.982472,26.25107 81.52591,25.488489 c 0.696406,-0.977224 24.32463,-1.596599 80.04358,-2.09821 64.96607,-0.584859 84.29078,-1.169073 108.4305,-3.278015 16.15625,-1.411474 41.1875,-2.717279 55.625,-2.90179 L 351.875,16.875 352.7699,71.25 c 0.49219,29.90625 1.05469,60 1.25,66.875 l 0.3551,12.5 67.5,0.625 67.5,0.625 0.0577,70 c 0.0537,65.11992 1.28684,119.83176 4.2823,190 1.86952,43.79372 4.08812,130.15262 3.59665,140 l -0.43671,8.75 -206.48645,0.31619 c -131.88898,0.20196 -206.756186,-0.12025 -207.233093,-0.8919 z m 364.89211,-45.43228 42.42259,-41.58491 -1.56796,-43.70355 c -3.37414,-94.04677 -4.00884,-120.11057 -4.71696,-193.70355 -0.48819,-50.73527 -1.17675,-76.80116 -2.05777,-77.89712 -1.07041,-1.3316 -13.91238,-1.59407 -67.03826,-1.37013 -64.51637,0.27196 -65.72094,0.23215 -66.08332,-2.1839 -0.203,-1.3535 -0.7655,-31.3932 -1.25,-66.754881 L 346.875,23.125 328.75,22.764632 c -9.96875,-0.198201 -28.8125,0.526938 -41.875,1.61142 -34.9149,2.898724 -74.64809,4.318455 -121.68151,4.347875 L 123.51197,28.75 107.69348,43.91859 C 98.993319,52.261314 90.623108,60.432965 89.093017,62.077815 l -2.781982,2.990638 0.764259,244.028277 c 0.492977,157.40783 1.202025,244.58289 1.997538,245.59077 0.97514,1.23545 34.233128,1.55746 158.892718,1.53846 l 157.65945,-0.024 42.42257,-41.58492 z M 354.375,428.11394 c -4.125,-2.34733 -9.75,-5.38249 -12.5,-6.74479 -2.75,-1.3623 -8.375,-4.39341 -12.5,-6.73582 -13.23206,-7.51392 -18.5017,-10.44242 -30.625,-17.01924 -6.53125,-3.54316 -13.28125,-7.2281 -15,-8.18874 -5.53564,-3.09396 -4.56546,-5.86289 4.01444,-11.45731 4.32331,-2.81897 10.11056,-6.58948 12.86056,-8.37891 2.75,-1.78944 7.25,-4.94824 10,-7.01955 2.75,-2.07133 6.125,-4.35188 7.5,-5.0679 1.375,-0.71603 4.84519,-2.83746 7.71154,-4.71428 15.18487,-9.94274 32.38552,-20.2874 33.733,-20.2874 0.8431,0 1.8894,0.57679 2.32508,1.28175 1.55815,2.52114 4.06653,96.78047 2.60159,97.76161 -1.90752,1.27755 -1.76434,1.32607 -10.12121,-3.42942 z m -177.50071,-0.61509 c -1.62309,-2.62621 -2.30214,-133.36584 -0.84632,-162.94543 4.44469,-90.30788 5.30757,-102.64955 7.31685,-104.65272 1.74518,-1.73986 23.55345,-1.05173 25.2668,0.79727 0.60065,0.64819 1.29798,60.99013 1.55204,134.30203 l 0.46134,133.125 -16.46671,0.34811 c -10.59808,0.22405 -16.758,-0.12312 -17.284,-0.97426 z"
     id="path3596"
     inkscape:connector-curvature="0" />
</svg>
